C:\Users\movea\Dropbox\PhDWork\ExperimentalData\subject14\100\P14S100W03_filtered35.mot
nRows=18
nColumns=28

name C:\Users\movea\Dropbox\PhDWork\ExperimentalData\subject14\100\P14S100W03_filtered35.mot
datacolumns 28
datarows 18
range 1.1900000000 1.2070000000
endheader
time	ground_force_1_vx	ground_force_1_vy	ground_force_1_vz	ground_force_1_px	ground_force_1_py	ground_force_1_pz	ground_moment_1_mx	ground_moment_1_my	ground_moment_1_mz	ground_force_2_vx	ground_force_2_vy	ground_force_2_vz	ground_force_2_px	ground_force_2_py	ground_force_2_pz	ground_moment_2_mx	ground_moment_2_my	ground_moment_2_mz	ground_force_3_vx	ground_force_3_vy	ground_force_3_vz	ground_force_3_px	ground_force_3_py	ground_force_3_pz	ground_moment_3_mx	ground_moment_3_my	ground_moment_3_mz
        1.1900000000	        0.0000000000	        0.0000000000	        0.0000000000	        0.1988394985	        0.0000558755	       -0.3004071309	       -0.0000000000	       -0.0000000000	       -0.0000000000	       13.3176446028	      449.6475593478	      151.3713050773	        0.2029003485	       -0.0000795827	        0.4543649521	      -32.3403356085	      -14.4771826532	       42.4960604108	      -52.3433732480	      528.4439524028	     -123.4418880643	        0.2076431961	        0.0000770316	        1.3583900146	      101.9620919680	       13.6064851983	        9.4023723787	
        1.1910000000	        0.0000000000	        0.0000000000	        0.0000000000	        0.1988394985	        0.0000558755	       -0.3004071309	       -0.0000000000	       -0.0000000000	       -0.0000000000	       13.5059800502	      436.9548226501	      148.0252802594	        0.2029003485	       -0.0000795827	        0.4543649521	      -31.7078975585	      -14.1161586726	       41.2908090846	      -52.2436209190	      541.3382041745	     -123.2887713268	        0.2076431961	        0.0000770316	        1.3583900146	      104.1379705746	       13.4703000783	        9.4874149808	
        1.1920000000	        0.0000000000	        0.0000000000	        0.0000000000	        0.1988394985	        0.0000558755	       -0.3004071309	       -0.0000000000	       -0.0000000000	       -0.0000000000	       13.6480175093	      424.1542628641	      144.4964910138	        0.2029003485	       -0.0000795827	        0.4543649521	      -31.0708090784	      -13.7399533439	       40.0753637138	      -51.8933444578	      553.7032396802	     -123.1983256992	        0.2076431961	        0.0000770316	        1.3583900146	      106.2154409778	       13.2825716706	        9.5512950484	
        1.1930000000	        0.0000000000	        0.0000000000	        0.0000000000	        0.1988394985	        0.0000558755	       -0.3004071309	       -0.0000000000	       -0.0000000000	       -0.0000000000	       13.7412677221	      411.2724143359	      140.7828834296	        0.2029003485	       -0.0000795827	        0.4543649521	      -30.4302043347	      -13.3487143689	       38.8520613440	      -51.2902924461	      565.4590018183	     -123.2473285145	        0.2076431961	        0.0000770316	        1.3583900146	      108.1763177026	       13.0461805002	        9.5939239184	
        1.1940000000	        0.0000000000	        0.0000000000	        0.0000000000	        0.1988394985	        0.0000558755	       -0.3004071309	       -0.0000000000	       -0.0000000000	       -0.0000000000	       13.7839080048	      398.3418826483	      136.8816265578	        0.2029003485	       -0.0000795827	        0.4543649521	      -29.7876700775	      -12.9427155106	       37.6238943666	      -50.4438338868	      576.5358832232	     -123.4839966546	        0.2076431961	        0.0000770316	        1.3583900146	      110.0044671127	       12.7662712526	        9.6156730393	
        1.1950000000	        0.0000000000	        0.0000000000	        0.0000000000	        0.1988394985	        0.0000558755	       -0.3004071309	       -0.0000000000	       -0.0000000000	       -0.0000000000	       13.7743537811	      385.3994508123	      132.7904151697	        0.2029003485	       -0.0000795827	        0.4543649521	      -29.1453209077	      -12.5223508351	       36.3943726123	      -49.3721925293	      586.8671509526	     -123.9287313427	        0.2076431961	        0.0000770316	        1.3583900146	      111.6853241320	       12.4493976047	        9.6172825818	
        1.1960000000	        0.0000000000	        0.0000000000	        0.0000000000	        0.1988394985	        0.0000558755	       -0.3004071309	       -0.0000000000	       -0.0000000000	       -0.0000000000	       13.7107663546	      372.4844542894	      128.5091555950	        0.2029003485	       -0.0000795827	        0.4543649521	      -28.5057725116	      -12.0881936810	       35.1674242876	      -48.0993761869	      596.3880011306	     -124.5769481311	        0.2076431961	        0.0000770316	        1.3583900146	      113.2054206970	       12.1029565049	        9.5997997243	
        1.1970000000	        0.0000000000	        0.0000000000	        0.0000000000	        0.1988394985	        0.0000558755	       -0.3004071309	       -0.0000000000	       -0.0000000000	       -0.0000000000	       13.5918145304	      359.6395241824	      124.0414278072	        0.2029003485	       -0.0000795827	        0.4543649521	      -27.8721277868	      -11.6409699846	       33.9474567921	      -46.6521298033	      605.0381419343	     -125.4031524117	        0.2076431961	        0.0000770316	        1.3583900146	      114.5523708249	       11.7345136983	        9.5645430770	
        1.1980000000	        0.0000000000	        0.0000000000	        0.0000000000	        0.1988394985	        0.0000558755	       -0.3004071309	       -0.0000000000	       -0.0000000000	       -0.0000000000	       13.4179018183	      346.9096242764	      119.3954383010	        0.2029003485	       -0.0000795827	        0.4543649521	      -27.2478815661	      -11.1815570631	       32.7394136735	      -45.0584110040	      612.7614184221	     -126.3666164026	        0.2076431961	        0.0000770316	        1.3583900146	      115.7154559320	       11.3511977255	        9.5130353568	
        1.1990000000	        0.0000000000	        0.0000000000	        0.0000000000	        0.1988394985	        0.0000558755	       -0.3004071309	       -0.0000000000	       -0.0000000000	       -0.0000000000	       13.1914254321	      334.3391361845	      114.5851829761	        0.2029003485	       -0.0000795827	        0.4543649521	      -26.6365519901	      -10.7110977281	       31.5485457807	      -43.3452248133	      619.5054146419	     -127.4183758081	        0.2076431961	        0.0000770316	        1.3583900146	      116.6862104969	       10.9594347447	        9.4468191515	
        1.2000000000	        0.0000000000	        0.0000000000	        0.0000000000	        0.1988394985	        0.0000558755	       -0.3004071309	       -0.0000000000	       -0.0000000000	       -0.0000000000	       12.9162769261	      321.9709680954	      109.6307748765	        0.2029003485	       -0.0000795827	        0.4543649521	      -26.0410668239	      -10.2310022676	       30.3800092737	      -41.5362405882	      625.2252438000	     -128.5077754415	        0.2076431961	        0.0000770316	        1.3583900146	      117.4587081643	       10.5644589921	        9.3671871321	
        1.2010000000	        0.0000000000	        0.0000000000	        0.0000000000	        0.1988394985	        0.0000558755	       -0.3004071309	       -0.0000000000	       -0.0000000000	       -0.0000000000	       12.5974964741	      309.8470493748	      104.5568272109	        0.2029003485	       -0.0000795827	        0.4543649521	      -25.4633475105	       -9.7427986059	       29.2384934817	      -39.6510855345	      629.8901437283	     -129.5865427184	        0.2076431961	        0.0000770316	        1.3583900146	      118.0299567617	       10.1700746308	        9.2750494940	
        1.2020000000	        0.0000000000	        0.0000000000	        0.0000000000	        0.1988394985	        0.0000558755	       -0.3004071309	        0.0000000000	       -0.0000000000	        0.0000000000	       12.2408784397	      298.0077839213	       99.3903804798	        0.2029003485	       -0.0000795827	        0.4543649521	      -24.9043136287	       -9.2480654622	       28.1279405798	      -37.7049827585	      633.4911761550	     -130.6110208156	        0.2076431961	        0.0000770316	        1.3583900146	      118.4006316182	        9.7786802132	        9.1710087191	
        1.2030000000	       -0.0000000000	        0.0000000000	       -0.0000000000	        0.1988394985	        0.0000558755	       -0.3004071309	        0.0000000000	       -0.0000000000	        0.0000000000	       11.8527608176	      286.4915032061	       94.1594501745	        0.2029003485	       -0.0000795827	        0.4543649521	      -24.3641358307	       -8.7484394922	       27.0515853586	      -35.7089177102	      636.0464320600	     -131.5444349747	        0.2076431961	        0.0000770316	        1.3583900146	      118.5758024298	        9.3913087778	        9.0555078056	
        1.2040000000	       -0.0000000000	        0.0000000000	       -0.0000000000	        0.1988394985	        0.0000558755	       -0.3004071309	        0.0000000000	       -0.0000000000	        0.0000000000	       11.4406033204	      275.3341999026	       88.8915916249	        0.2029003485	       -0.0000795827	        0.4543649521	      -23.8425877394	       -8.2456399409	       26.0122913955	      -33.6713495524	      637.6010666324	     -132.3583723436	        0.2076431961	        0.0000770316	        1.3583900146	      118.5653375747	        9.0081201243	        8.9290602003	
        1.2050000000	       -0.0000000000	        0.0000000000	       -0.0000000000	        0.1988394985	        0.0000558755	       -0.3004071309	        0.0000000000	        0.0000000000	        0.0000000000	       11.0129764549	      264.5673977797	       83.6130031964	        0.2029003485	       -0.0000795827	        0.4543649521	      -23.3392101257	       -7.7415549095	       25.0126771971	      -31.5994198795	      638.2233512025	     -133.0330758482	        0.2076431961	        0.0000770316	        1.3583900146	      118.3837911371	        8.6286901008	        8.7925593727	
        1.2060000000	       -0.0000000000	        0.0000000000	       -0.0000000000	        0.1988394985	        0.0000558755	       -0.3004071309	        0.0000000000	        0.0000000000	        0.0000000000	       10.5782524602	      254.2142115859	       78.3494209557	        0.2029003485	       -0.0000795827	        0.4543649521	      -22.8532094382	       -7.2382915253	       24.0548489044	      -29.4988901225	      637.9993344602	     -133.5581673210	        0.2076431961	        0.0000770316	        1.3583900146	      118.0498465871	        8.2521014024	        8.6474322324	
        1.2070000000	       -0.0000000000	        0.0000000000	       -0.0000000000	        0.1988394985	        0.0000558755	       -0.3004071309	        0.0000000000	        0.0000000000	        0.0000000000	       10.1434463921	      244.2876550435	       73.1275857806	        0.2029003485	       -0.0000795827	        0.4543649521	      -22.3834426373	       -6.7381590865	       23.1400973150	      -27.3745427861	      637.0312986274	     -133.9331501454	        0.2076431961	        0.0000770316	        1.3583900146	      117.5856437105	        7.8773146709	        8.4954237280	
